 /* XPM */
static char * cpu_xpm[] = {
"8 8 4 1",
" 	c None",
".	c #97b676",
"+	c #000000",
"@	c #FFFFFF",
".. .. ..",
".      .",
"  ....  ",
". .... .",
". .... .",
"  ....  ",
".      .",
".. .. .."};
